# xmcd CD database file
#
# Track frame offsets:
#	182
#	15087
#	27697
#	42567
#	55847
#	69225
#	83567
#	98195
#	112520
#	124787
#	137687
#	152622
#	167830
#	181880
#	197135
#	212435
#	226247
#	239290
#	252277
#	263490
#	279725
#	295110
#
# Disc length: 4086 seconds
#
# Revision: 0
# Processed by: cddbd v1.5.1PL2 Copyright (c) Steve Scherf et al.
# Submitted via: CDex 1.51
#
DISCID=210ff416
DTITLE=Various Artist - Les plus grands orchestres de la libération
DYEAR=1994
DGENRE=Jazz
TTITLE0=CAB CALLOWAY - Minnie The Moocher
TTITLE1=CAB CALLOWAY - The Jumpin' Jive
TTITLE2=CAB CALLOWAY - Jungle King
TTITLE3=CAB CALLOWAY - Hey Now Hey Now
TTITLE4=CAB CALLOWAY - Honey Dripper
TTITLE5=COUNT BASIE - Jumpin' At The Woodside
TTITLE6=COUNT BASIE - The Blues I Like To Hear
TTITLE7=COUNT BASIE - Stop Beatin' About The Mulberry Bush
TTITLE8=COUNT BASIE - Do You Wanna Jump, Children
TTITLE9=COUNT BASIE - Blame It On My Last Affair
TTITLE10=BENNIE GOODMAN - Flying Home
TTITLE11=BENNIE GOODMAN - Bewitched
TTITLE12=BENNIE GOODMAN - If I Had You
TTITLE13=BENNIE GOODMAN - On The Sunny Side Of The Street
TTITLE14=BENNIE GOODMAN - Rattle And Roll
TTITLE15=DUKE ELLINGTON - Frankie And Johnnie
TTITLE16=DUKE ELLINGTON - Bugle Breaks
TTITLE17=DUKE ELLINGTON - Take The A Train
TTITLE18=DUKE ELLINGTON - Moon Mist
TTITLE19=GLENN MILLER - In The Mood
TTITLE20=GLENN MILLER - Moonlight Serenade
TTITLE21=LOUIS ARMSTRONG - When The Saints Go Marchin' In
EXTD=YEAR: 1994
EXTT0=
EXTT1=
EXTT2=
EXTT3=
EXTT4=
EXTT5=
EXTT6=
EXTT7=
EXTT8=
EXTT9=
EXTT10=
EXTT11=
EXTT12=
EXTT13=
EXTT14=
EXTT15=
EXTT16=
EXTT17=
EXTT18=
EXTT19=
EXTT20=
EXTT21=
PLAYORDER=
